HIERARCHY
ROOT Hips
{
	OFFSET 0.000000 88.474243 0.000000
	CHANNELS 6 Xposition Yposition Zposition Zrotation Yrotation Xrotation 
	JOINT Hips_Spine
	{
		OFFSET 0.000000 0.000000 0.000000
		CHANNELS 3 Zrotation Yrotation Xrotation
		JOINT Spine
		{
			OFFSET 0.005100 8.711998 -0.691000
			CHANNELS 3 Zrotation Yrotation Xrotation
			JOINT Spine1
			{
				OFFSET -0.009200 8.660301 -1.275000
				CHANNELS 3 Zrotation Yrotation Xrotation
				JOINT Spine2
				{
					OFFSET 0.006300 9.852501 -1.857000
					CHANNELS 3 Zrotation Yrotation Xrotation
					JOINT Spine2_Neck
					{
						OFFSET 0.000000 0.000000 0.000000
						CHANNELS 3 Zrotation Yrotation Xrotation
						JOINT Neck
						{
							OFFSET 0.016300 11.420799 -0.263300
							CHANNELS 3 Zrotation Yrotation Xrotation
							End Site #name: Head
							{
								OFFSET -0.019200 9.262405 2.362500
							}
						}
					}
					JOINT Spine2_LeftShoulder
					{
						OFFSET 0.000000 0.000000 0.000000
						CHANNELS 3 Zrotation Yrotation Xrotation
						JOINT LeftShoulder
						{
							OFFSET 5.616900 6.732201 -0.345700
							CHANNELS 3 Zrotation Yrotation Xrotation
							JOINT LeftArm
							{
								OFFSET 10.664888 -0.183372 -2.440700
								CHANNELS 3 Zrotation Yrotation Xrotation
								JOINT LeftForeArm
								{
									OFFSET 27.459126 0.000000 0.000000
									CHANNELS 3 Zrotation Yrotation Xrotation
									End Site #name: LeftHand
									{
										OFFSET 21.306858 0.000000 0.000000
									}
								}
							}
						}
					}
					JOINT Spine2_RightShoulder
					{
						OFFSET 0.000000 0.000000 0.000000
						CHANNELS 3 Zrotation Yrotation Xrotation
						JOINT RightShoulder
						{
							OFFSET -5.580300 6.737503 -0.344400
							CHANNELS 3 Zrotation Yrotation Xrotation
							JOINT RightArm
							{
								OFFSET -10.679335 -0.188484 -2.383900
								CHANNELS 3 Zrotation Yrotation Xrotation
								JOINT RightForeArm
								{
									OFFSET -27.503529 0.000000 0.000000
									CHANNELS 3 Zrotation Yrotation Xrotation
									End Site #name: RightHand
									{
										OFFSET -21.306808 0.000000 0.000000
									}
								}
							}
						}
					}
				}
			}
		}
	}
	JOINT Hips_LeftUpLeg
	{
		OFFSET 0.000000 0.000000 0.000000
		CHANNELS 3 Zrotation Yrotation Xrotation
		JOINT LeftUpLeg
		{
			OFFSET 6.857700 -6.739601 0.312100
			CHANNELS 3 Zrotation Yrotation Xrotation
			JOINT LeftLeg
			{
				OFFSET -0.367590 -34.731552 -4.572400
				CHANNELS 3 Zrotation Yrotation Xrotation
				End Site #name: LeftFoot
				{
					OFFSET 0.367590 -34.656704 -6.067400
				}
			}
		}
	}
	JOINT Hips_RightUpLeg
	{
		OFFSET 0.000000 0.000000 0.000000
		CHANNELS 3 Zrotation Yrotation Xrotation
		JOINT RightUpLeg
		{
			OFFSET -6.876100 -6.733299 0.301000
			CHANNELS 3 Zrotation Yrotation Xrotation
			JOINT RightLeg
			{
				OFFSET 0.347353 -34.795158 -4.515900
				CHANNELS 3 Zrotation Yrotation Xrotation
				End Site #name: RightFoot
				{
					OFFSET -0.347353 -34.589367 -6.070300
				}
			}
		}
	}
}
MOTION
Frames: 19
Frame Time: 0.041667
0.247153 -0.031848 -1.307548 -1.187924 4.414288 -3.824571 0.000000 -0.000000 0.000000 1.099728 1.422180 0.084061 -2.027380 0.460047 4.062649 0.000000 0.000000 0.000000 -2.356149 0.549302 3.256571 0.510322 -1.585596 8.880505 -2.145842 0.398406 4.219213 -1.439069 5.028319 -0.882424 -67.425670 -5.992912 61.410546 0.242517 -30.787894 0.056289 -2.054294 0.557983 3.283136 1.406860 9.839531 2.788414 71.009240 3.275220 45.677353 0.017171 69.528489 0.267270 0.000000 0.000000 -0.000000 3.654417 10.929449 -11.061969 2.377485 6.954467 15.695959 0.000000 -0.000000 0.000000 -2.900602 -9.745388 -11.372388 -0.115742 -0.147331 15.593502 
0.139670 -0.033777 -1.350625 -1.121675 4.448553 -3.818968 0.000000 -0.000000 0.000000 1.136414 1.409620 0.085560 -2.001450 0.449923 4.047726 0.000000 0.000000 0.000000 -2.331089 0.540531 3.245084 0.509891 -1.586571 8.904271 -2.124933 0.393352 4.199229 -1.472427 5.034241 -0.889523 -67.450303 -6.042926 61.298402 0.240676 -30.761427 0.050845 -2.032179 0.548320 3.273067 1.385686 9.823409 2.780197 71.027641 3.267076 45.773694 0.007036 69.290349 0.258014 0.000000 0.000000 -0.000000 3.682977 10.950936 -11.075482 2.376649 6.936357 15.672510 0.000000 -0.000000 0.000000 -2.869557 -9.732306 -11.385542 -0.111025 -0.156167 15.608181 
0.033957 -0.035817 -1.393380 -1.058316 4.479451 -3.812294 0.000000 -0.000000 0.000000 1.169672 1.394954 0.091090 -1.973484 0.438620 4.035853 0.000000 0.000000 0.000000 -2.302631 0.530691 3.238453 0.510523 -1.586106 8.928005 -2.101144 0.387635 4.182183 -1.505267 5.041215 -0.896246 -67.475875 -6.091464 61.171586 0.240685 -30.674795 0.046384 -2.006419 0.537477 3.264983 1.361287 9.802240 2.770747 71.029320 3.276158 45.854059 -0.003443 69.094967 0.248586 0.000000 0.000000 -0.000000 3.712909 10.973993 -11.088177 2.378051 6.923280 15.646331 0.000000 -0.000000 0.000000 -2.839472 -9.717495 -11.402266 -0.106707 -0.168842 15.631538 
-0.069475 -0.037962 -1.435874 -0.997622 4.504889 -3.805573 0.000000 -0.000000 0.000000 1.203087 1.379127 0.096967 -1.943233 0.425364 4.026367 0.000000 0.000000 0.000000 -2.272567 0.519483 3.234732 0.511731 -1.582004 8.949624 -2.077315 0.381606 4.168543 -1.536872 5.047259 -0.904017 -67.503639 -6.154056 61.034868 0.239257 -30.579285 0.042661 -1.979890 0.525127 3.260206 1.330070 9.776925 2.759764 70.999376 3.309401 45.897458 -0.010275 68.991388 0.241734 0.000000 0.000000 -0.000000 3.742927 11.000151 -11.103706 2.378716 6.910420 15.624702 0.000000 -0.000000 0.000000 -2.810235 -9.701487 -11.420315 -0.101756 -0.182099 15.656756 
-0.170078 -0.040249 -1.478121 -0.938751 4.530801 -3.798641 0.000000 -0.000000 0.000000 1.238364 1.362826 0.108631 -1.912023 0.411503 4.018194 0.000000 0.000000 0.000000 -2.242220 0.507195 3.234379 0.512276 -1.575421 8.969446 -2.052794 0.375350 4.156032 -1.569461 5.047064 -0.910573 -67.541117 -6.216459 60.922552 0.238334 -30.443830 0.038121 -1.953224 0.512464 3.257288 1.297303 9.748385 2.749414 70.933047 3.353117 45.923840 -0.015946 68.984118 0.237600 0.000000 0.000000 -0.000000 3.773372 11.026897 -11.116559 2.381575 6.904354 15.601577 0.000000 -0.000000 0.000000 -2.782208 -9.688799 -11.435493 -0.098228 -0.196521 15.676329 
-0.267748 -0.042580 -1.520156 -0.879856 4.554698 -3.792396 0.000000 -0.000000 0.000000 1.270529 1.344444 0.126539 -1.884115 0.399941 4.011828 0.000000 0.000000 0.000000 -2.213515 0.493786 3.234876 0.514523 -1.567433 8.985341 -2.029054 0.368775 4.146586 -1.588939 5.053701 -0.916952 -67.572847 -6.307766 60.810447 0.236939 -30.321790 0.035830 -1.928874 0.499051 3.254851 1.259469 9.713564 2.738485 70.812022 3.411385 45.893336 -0.019172 69.095184 0.236818 0.000000 0.000000 -0.000000 3.803112 11.051126 -11.127790 2.382624 6.899382 15.580647 0.000000 -0.000000 0.000000 -2.759076 -9.681039 -11.453609 -0.094819 -0.209874 15.703490 
-0.362378 -0.044961 -1.562072 -0.822137 4.575753 -3.786586 0.000000 -0.000000 0.000000 1.304864 1.326335 0.150143 -1.858023 0.388569 4.005984 0.000000 0.000000 0.000000 -2.187009 0.480551 3.235762 0.517153 -1.556139 8.995311 -2.007876 0.362558 4.136121 -1.611286 5.056981 -0.922588 -67.625636 -6.391457 60.660701 0.234901 -30.177850 0.032690 -1.906450 0.485504 3.252871 1.232076 9.675517 2.729426 70.652244 3.479037 45.834314 -0.019443 69.301413 0.238249 0.000000 0.000000 -0.000000 3.829173 11.076535 -11.138946 2.386451 6.899110 15.560198 0.000000 -0.000000 0.000000 -2.736042 -9.671483 -11.471839 -0.092583 -0.223433 15.729005 
-0.453892 -0.047424 -1.603938 -0.765657 4.593589 -3.780533 0.000000 -0.000000 0.000000 1.335093 1.311156 0.175050 -1.834449 0.378005 4.002438 0.000000 0.000000 0.000000 -2.162810 0.466872 3.238388 0.519968 -1.544263 9.002037 -1.988541 0.356338 4.129273 -1.632444 5.062024 -0.928020 -67.669937 -6.469714 60.541816 0.234097 -30.033147 0.031371 -1.886143 0.472147 3.251836 1.210252 9.642050 2.723424 70.457970 3.554672 45.751619 -0.018716 69.592381 0.241528 0.000000 0.000000 -0.000000 3.854957 11.107110 -11.146152 2.390261 6.903791 15.534479 0.000000 -0.000000 0.000000 -2.716017 -9.668299 -11.486606 -0.089491 -0.233194 15.748578 
-0.542194 -0.049966 -1.645796 -0.709265 4.611310 -3.774541 0.000000 -0.000000 0.000000 1.364626 1.296984 0.206975 -1.813358 0.368963 3.999119 0.000000 0.000000 0.000000 -2.140416 0.454520 3.242041 0.522454 -1.529475 9.002843 -1.970596 0.350720 4.121999 -1.655673 5.071762 -0.934954 -67.709233 -6.546214 60.417521 0.232017 -29.893460 0.029767 -1.867236 0.459646 3.251429 1.193599 9.609917 2.717400 70.242469 3.630086 45.649100 -0.017203 69.889749 0.243845 0.000000 0.000000 -0.000000 3.878612 11.141089 -11.155647 2.396031 6.914196 15.512403 0.000000 -0.000000 0.000000 -2.697252 -9.663907 -11.503370 -0.089268 -0.242534 15.771591 
-0.626871 -0.052478 -1.687714 -0.654023 4.628013 -3.767976 0.000000 -0.000000 0.000000 1.389410 1.284511 0.238428 -1.793510 0.360492 3.996793 0.000000 0.000000 0.000000 -2.120165 0.442756 3.246651 0.524710 -1.514613 8.998026 -1.954479 0.345858 4.116875 -1.675033 5.084427 -0.942326 -67.750670 -6.607351 60.294678 0.232764 -29.792430 0.026542 -1.849520 0.448216 3.250962 1.186213 9.582955 2.715442 70.038664 3.689012 45.579902 -0.017433 70.154204 0.244807 0.000000 0.000000 -0.000000 3.900813 11.175241 -11.164601 2.402713 6.927573 15.491490 0.000000 -0.000000 0.000000 -2.680964 -9.663868 -11.518744 -0.087519 -0.248161 15.790913 
-0.707383 -0.055051 -1.729674 -0.600043 4.642905 -3.760285 0.000000 -0.000000 0.000000 1.411793 1.276004 0.270932 -1.776216 0.353405 3.995337 0.000000 0.000000 0.000000 -2.101651 0.432189 3.252163 0.526619 -1.498364 8.987065 -1.940070 0.341797 4.112671 -1.693265 5.092976 -0.948295 -67.783737 -6.662295 60.188396 0.232259 -29.649858 0.024474 -1.832649 0.441581 3.251545 1.187485 9.563502 2.715939 69.878903 3.732207 45.569892 -0.016259 70.287614 0.245622 0.000000 0.000000 -0.000000 3.920618 11.212272 -11.173415 2.412163 6.946304 15.472741 0.000000 -0.000000 0.000000 -2.666046 -9.666090 -11.530170 -0.090019 -0.253238 15.803967 
-0.783408 -0.057697 -1.771759 -0.546622 4.657084 -3.752801 0.000000 -0.000000 0.000000 1.427362 1.269268 0.300227 -1.761593 0.348197 3.994074 0.000000 0.000000 0.000000 -2.084645 0.423199 3.258942 0.526396 -1.477897 8.964218 -1.926096 0.338263 4.109493 -1.706614 5.101315 -0.955210 -67.825620 -6.723222 60.082956 0.233361 -29.510310 0.020761 -1.815944 0.435699 3.251824 1.190729 9.549919 2.714688 69.762331 3.748422 45.616878 -0.016899 70.285108 0.243369 0.000000 0.000000 -0.000000 3.939338 11.248415 -11.183145 2.422946 6.970816 15.460281 0.000000 -0.000000 0.000000 -2.651850 -9.671225 -11.540490 -0.090631 -0.257808 15.812446 
-0.854473 -0.060389 -1.814011 -0.494764 4.674469 -3.745077 0.000000 -0.000000 0.000000 1.434844 1.263087 0.323093 -1.748009 0.344544 3.994515 0.000000 0.000000 0.000000 -2.067348 0.419248 3.265098 0.525162 -1.456480 8.932933 -1.911934 0.335640 4.108122 -1.717529 5.111123 -0.962334 -67.855081 -6.791054 59.974949 0.234993 -29.355679 0.016864 -1.798983 0.430971 3.252951 1.205748 9.539583 2.713422 69.732647 3.759910 45.766988 -0.017862 70.072657 0.240154 0.000000 0.000000 -0.000000 3.952218 11.283699 -11.194697 2.436295 6.999800 15.449820 0.000000 -0.000000 0.000000 -2.639459 -9.675730 -11.552115 -0.093290 -0.259630 15.822595 
-0.919596 -0.063100 -1.856372 -0.446460 4.688687 -3.733261 0.000000 -0.000000 0.000000 1.435659 1.258792 0.339823 -1.734728 0.341314 3.995144 0.000000 0.000000 0.000000 -2.049267 0.415932 3.272851 0.521747 -1.431126 8.890323 -1.897653 0.333247 4.107176 -1.729593 5.114805 -0.968626 -67.886925 -6.879340 59.896516 0.236972 -29.187674 0.013346 -1.780280 0.426518 3.254381 1.226885 9.525693 2.708763 69.761652 3.759514 45.993350 -0.022492 69.660896 0.232936 0.000000 0.000000 -0.000000 3.962311 11.308628 -11.207580 2.451090 7.036633 15.443379 0.000000 -0.000000 0.000000 -2.628843 -9.686150 -11.561884 -0.095640 -0.260793 15.826578 
-0.977753 -0.065848 -1.898890 -0.401049 4.706076 -3.718103 0.000000 -0.000000 0.000000 1.429806 1.253316 0.350842 -1.719837 0.337690 3.996604 0.000000 0.000000 0.000000 -2.030033 0.412882 3.282357 0.515519 -1.402764 8.836330 -1.882698 0.330786 4.108167 -1.745279 5.106489 -0.972927 -67.904945 -6.966895 59.826851 0.239093 -29.020018 0.007167 -1.759915 0.421551 3.256216 1.254666 9.515309 2.701517 69.867716 3.764633 46.289635 -0.026953 69.056846 0.224352 0.000000 0.000000 -0.000000 3.967037 11.337816 -11.221331 2.468404 7.077497 15.435884 0.000000 -0.000000 0.000000 -2.620860 -9.698610 -11.576007 -0.098234 -0.259979 15.836486 
-1.027963 -0.068571 -1.941535 -0.358039 4.723035 -3.700862 0.000000 -0.000000 0.000000 1.418353 1.244110 0.355736 -1.705199 0.333746 3.998192 0.000000 0.000000 0.000000 -2.009974 0.409580 3.291030 0.510827 -1.369147 8.767763 -1.866150 0.328119 4.108363 -1.759197 5.091916 -0.976503 -67.906941 -7.078625 59.754139 0.242325 -28.834607 0.001830 -1.738282 0.416447 3.258671 1.283042 9.505341 2.692251 70.039981 3.778226 46.683965 -0.031565 68.252014 0.216609 0.000000 0.000000 -0.000000 3.967137 11.360161 -11.237837 2.487314 7.124208 15.430917 0.000000 -0.000000 0.000000 -2.618369 -9.710486 -11.589108 -0.100053 -0.260095 15.840620 
-1.069310 -0.071306 -1.984316 -0.317826 4.741975 -3.680164 -0.000000 -0.000000 0.000000 1.402765 1.231858 0.353540 -1.690052 0.328826 4.000315 0.000000 0.000000 0.000000 -1.989216 0.406177 3.301123 0.506119 -1.332485 8.683432 -1.849568 0.324941 4.109500 -1.785728 5.062549 -0.979411 -67.894652 -7.204516 59.674384 0.246099 -28.650010 -0.003978 -1.715393 0.410589 3.261156 1.309882 9.496722 2.679540 70.231111 3.795564 47.101471 -0.039009 66.944594 0.203664 -0.000000 0.000000 -0.000000 3.961091 11.367905 -11.250275 2.506755 7.174320 15.423613 0.000000 -0.000000 0.000000 -2.618264 -9.719956 -11.604883 -0.102818 -0.262172 15.846949 
-1.102217 -0.074014 -2.027118 -0.283638 4.754182 -3.659119 -0.000000 -0.000000 0.000000 1.382204 1.213574 0.349816 -1.675670 0.322859 4.003651 0.000000 0.000000 0.000000 -1.968087 0.402763 3.310382 0.505148 -1.297918 8.595608 -1.832805 0.321662 4.109384 -1.819342 5.022869 -0.979258 -67.851344 -7.352050 59.593521 0.250210 -28.470853 -0.009485 -1.694196 0.405028 3.264058 1.351262 9.486273 2.662480 70.465433 3.858187 47.493725 -0.043572 65.088040 0.192146 -0.000000 0.000000 -0.000000 3.949788 11.368463 -11.262132 2.527310 7.227524 15.419811 0.000000 -0.000000 0.000000 -2.622398 -9.730358 -11.620513 -0.106366 -0.265391 15.854097 
-1.127236 -0.076804 -2.069781 -0.256347 4.753691 -3.638166 -0.000000 -0.000000 0.000000 1.352337 1.194702 0.340871 -1.661981 0.316547 4.009521 0.000000 0.000000 0.000000 -1.946751 0.399403 3.322947 0.505432 -1.265663 8.496704 -1.818466 0.317935 4.113770 -1.863917 4.982219 -0.978697 -67.772746 -7.507302 59.515083 0.253779 -28.269467 -0.014874 -1.674673 0.399257 3.270641 1.404075 9.476495 2.643136 70.719293 3.955873 47.831894 -0.044581 62.861293 0.178913 -0.000000 0.000000 -0.000000 3.934163 11.356217 -11.271475 2.545063 7.278819 15.417045 0.000000 -0.000000 0.000000 -2.629883 -9.738106 -11.636140 -0.108444 -0.271057 15.861391 
